<?xml version="1.0" encoding="utf-8"?>
<!-- Generator: Adobe Illustrator 16.0.0, SVG Export Plug-In . SVG Version: 6.00 Build 0)  -->
<!DOCTYPE svg PUBLIC "-//W3C//DTD SVG 1.1//EN" "http://www.w3.org/Graphics/SVG/1.1/DTD/svg11.dtd">
<svg version="1.1" xmlns="http://www.w3.org/2000/svg" xmlns:xlink="http://www.w3.org/1999/xlink" x="0px" y="0px"
	 width="847.522px" height="807.003px" viewBox="0 0 847.522 807.003" enable-background="new 0 0 847.522 807.003"
	 xml:space="preserve">
<g id="Layer_1">
	<g>
		<path fill="#71B844" d="M248.023,572.63c0,2.404,0,4.808,0,7.442c-2.635,0-5.038,0-7.441,0c0-2.461,0-4.918,0-7.442
			C243.062,572.63,245.542,572.63,248.023,572.63z"/>
		<path fill="#71B844" d="M240.582,589.637c2.407,0,4.814,0,7.331,0c0,2.539,0,4.804,0,7.441c-2.457,0-4.894,0-7.331,0
			C240.582,594.598,240.582,592.118,240.582,589.637z"/>
		<path fill="#71B844" d="M240.582,606.645c2.406,0,4.812,0,7.324,0c0,2.533,0,4.834,0,7.439c-2.518,0-4.921,0-7.324,0
			C240.582,611.605,240.582,609.125,240.582,606.645z"/>
		<path fill="#71B844" d="M240.582,598.142c2.41,0,4.819,0,7.331,0c0,2.582,0,4.887,0,7.439c-2.516,0-4.923,0-7.331,0
			C240.582,603.102,240.582,600.621,240.582,598.142z"/>
		<path fill="#71B844" d="M372.388,572.63c0,2.406,0,4.812,0,7.331c-2.547,0-4.812,0-7.441,0c0-2.449,0-4.892,0-7.331
			C367.426,572.63,369.907,572.63,372.388,572.63z"/>
		<path fill="#71B844" d="M273.799,572.63c0,2.406,0,4.811,0,7.328c-2.422,0-4.673,0-7.176,0c0-2.525,0-4.928,0-7.328
			C269.016,572.63,271.407,572.63,273.799,572.63z"/>
		<path fill="#71B844" d="M380.891,572.63c0,2.4,0,4.803,0,7.322c-2.468,0-4.687,0-7.176,0c0-2.449,0-4.886,0-7.322
			C376.107,572.63,378.499,572.63,380.891,572.63z"/>
		<path fill="#71B844" d="M418.537,581.322c0,2.43,0,4.709,0,7.127c-2.401,0-4.71,0-7.179,0c0-2.346,0-4.659,0-7.127
			C413.688,581.322,416.032,581.322,418.537,581.322z"/>
		<path fill="#71B844" d="M324.743,606.804c2.44,0,4.746,0,7.161,0c0,2.426,0,4.695,0,7.102c-2.395,0-4.702,0-7.161,0
			C324.743,611.539,324.743,609.235,324.743,606.804z"/>
		<path fill="#71B844" d="M331.858,605.477c-2.405,0-4.681,0-7.11,0c0-2.392,0-4.733,0-7.205c2.362,0,4.663,0,7.11,0
			C331.858,600.687,331.858,602.988,331.858,605.477z"/>
		<path fill="#71B844" d="M418.559,589.813c0,2.435,0,4.674,0,7.083c-2.378,0-4.68,0-7.172,0c0-2.268,0-4.604,0-7.083
			C413.715,589.813,416.058,589.813,418.559,589.813z"/>
		<path fill="#71B844" d="M331.865,596.926c-2.388,0-4.726,0-7.165,0c0-2.395,0-4.698,0-7.13c2.42,0,4.724,0,7.165,0
			C331.865,592.184,331.865,594.482,331.865,596.926z"/>
		<path fill="#71B844" d="M324.757,581.28c2.524,0,4.759,0,7.122,0c0,2.417,0,4.722,0,7.146c-2.4,0-4.704,0-7.122,0
			C324.757,585.995,324.757,583.66,324.757,581.28z"/>
		<path fill="#71B844" d="M356.549,596.917c0-2.448,0-4.721,0-7.124c2.425,0,4.737,0,7.135,0c0,2.368,0,4.668,0,7.124
			C361.246,596.917,358.982,596.917,356.549,596.917z"/>
		<path fill="#71B844" d="M469.472,581.317c2.376,0,4.677,0,7.125,0c0,2.338,0,4.643,0,7.099c-2.354,0-4.69,0-7.125,0
			C469.472,586.011,469.472,583.742,469.472,581.317z"/>
		<path fill="#71B844" d="M583.251,589.792c0,2.383,0,4.649,0,7.068c-2.429,0-4.736,0-7.185,0c0-2.337,0-4.64,0-7.068
			C578.433,589.792,580.743,589.792,583.251,589.792z"/>
		<path fill="#71B844" d="M307.726,572.99c2.428,0,4.698,0,7.073,0c0,2.452,0,4.799,0,7.235c-2.414,0-4.677,0-7.073,0
			C307.726,577.766,307.726,575.42,307.726,572.99z"/>
		<path fill="#71B844" d="M411.372,580.222c0-2.403,0-4.741,0-7.212c2.381,0,4.684,0,7.098,0c0,2.423,0,4.759,0,7.212
			C416.092,580.222,413.875,580.222,411.372,580.222z"/>
		<path fill="#71B844" d="M476.597,605.433c-2.426,0-4.729,0-7.126,0c0-2.41,0-4.679,0-7.108c2.379,0,4.68,0,7.126,0
			C476.597,600.67,476.597,602.975,476.597,605.433z"/>
		<path fill="#71B844" d="M583.298,606.819c0,2.374,0,4.647,0,7.079c-2.403,0-4.742,0-7.194,0c0-2.388,0-4.657,0-7.079
			C578.481,606.819,580.786,606.819,583.298,606.819z"/>
		<path fill="#71B844" d="M574.675,573.018c0,2.396,0,4.74,0,7.204c-2.327,0-4.55,0-6.983,0c0-2.34,0-4.702,0-7.204
			C569.998,573.018,572.258,573.018,574.675,573.018z"/>
		<path fill="#71B844" d="M356.549,588.329c0-2.376,0-4.645,0-7.04c2.421,0,4.73,0,7.163,0c0,2.317,0,4.574,0,7.04
			C361.279,588.329,358.993,588.329,356.549,588.329z"/>
		<path fill="#71B844" d="M559.021,598.262c2.458,0,4.732,0,7.147,0c0,2.396,0,4.705,0,7.146c-2.406,0-4.716,0-7.147,0
			C559.021,602.998,559.021,600.726,559.021,598.262z"/>
		<path fill="#71B844" d="M476.628,589.829c0,2.388,0,4.701,0,7.108c-2.4,0-4.707,0-7.133,0c0-2.385,0-4.654,0-7.108
			C471.825,589.829,474.128,589.829,476.628,589.829z"/>
		<path fill="#71B844" d="M418.545,598.33c0,2.393,0,4.635,0,7.039c-2.426,0-4.762,0-7.221,0c0-2.422,0-4.655,0-7.039
			C413.689,598.33,416.034,598.33,418.545,598.33z"/>
		<path fill="#71B844" d="M559.01,596.913c0-2.423,0-4.696,0-7.107c2.405,0,4.707,0,7.156,0c0,2.371,0,4.677,0,7.107
			C563.76,596.913,561.424,596.913,559.01,596.913z"/>
		<path fill="#71B844" d="M411.325,613.84c0-2.426,0-4.65,0-7.018c2.384,0,4.729,0,7.194,0c0,2.358,0,4.628,0,7.018
			C416.119,613.84,413.784,613.84,411.325,613.84z"/>
		<path fill="#71B844" d="M535.334,613.958c-2.355,0-4.543,0-6.977,0c0-2.375,0-4.702,0-7.178c2.266,0,4.57,0,6.977,0
			C535.334,609.164,535.334,611.504,535.334,613.958z"/>
		<path fill="#71B844" d="M567.579,613.893c0-2.378,0-4.683,0-7.104c2.379,0,4.654,0,7.091,0c0,2.338,0,4.641,0,7.104
			C572.419,613.893,570.114,613.893,567.579,613.893z"/>
		<path fill="#71B844" d="M372.171,613.922c-2.283,0-4.559,0-7.022,0c0-2.449,0-4.75,0-7.168c2.308,0,4.584,0,7.022,0
			C372.171,609.118,372.171,611.435,372.171,613.922z"/>
		<path fill="#71B844" d="M436.061,596.824c-2.383,0-4.663,0-7.117,0c0-2.24,0-4.543,0-7c2.352,0,4.684,0,7.117,0
			C436.061,592.149,436.061,594.368,436.061,596.824z"/>
		<path fill="#71B844" d="M528.348,581.289c2.332,0,4.629,0,6.956,0c0,2.431,0,4.729,0,7.145c-2.376,0-4.554,0-6.956,0
			C528.348,586.057,528.348,583.771,528.348,581.289z"/>
		<path fill="#71B844" d="M535.324,589.801c0,2.425,0,4.692,0,7.104c-2.407,0-4.625,0-7.023,0c0-2.356,0-4.659,0-7.104
			C530.622,589.801,532.926,589.801,535.324,589.801z"/>
		<path fill="#71B844" d="M323.267,589.787c0,2.438,0,4.711,0,7.128c-2.434,0-4.695,0-7.066,0c0-2.388,0-4.697,0-7.128
			C318.598,589.787,320.871,589.787,323.267,589.787z"/>
		<path fill="#71B844" d="M356.558,598.244c2.493,0,4.769,0,7.14,0c0,2.409,0,4.711,0,7.139c-2.463,0-4.763,0-7.14,0
			C356.558,602.93,356.558,600.666,356.558,598.244z"/>
		<path fill="#71B844" d="M476.601,606.819c0,2.341,0,4.604,0,7.043c-2.43,0-4.726,0-7.124,0c0-2.36,0-4.627,0-7.043
			C471.871,606.819,474.172,606.819,476.601,606.819z"/>
		<path fill="#71B844" d="M249.357,589.774c2.387,0,4.658,0,7.07,0c0,2.404,0,4.7,0,7.128c-2.338,0-4.603,0-7.07,0
			C249.357,594.527,249.357,592.233,249.357,589.774z"/>
		<path fill="#71B844" d="M511.177,581.27c2.456,0,4.727,0,7.127,0c0,2.362,0,4.622,0,7.069c-2.441,0-4.729,0-7.127,0
			C511.177,585.991,511.177,583.722,511.177,581.27z"/>
		<path fill="#71B844" d="M576.135,572.967c2.42,0,4.651,0,7.077,0c0,2.414,0,4.745,0,7.226c-2.334,0-4.632,0-7.077,0
			C576.135,577.816,576.135,575.479,576.135,572.967z"/>
		<path fill="#71B844" d="M316.227,572.983c2.481,0,4.714,0,7.019,0c0,2.447,0,4.793,0,7.246c-2.421,0-4.643,0-7.019,0
			C316.227,577.787,316.227,575.443,316.227,572.983z"/>
		<path fill="#71B844" d="M535.369,598.311c0,2.431,0,4.702,0,7.119c-2.342,0-4.553,0-7,0c0-2.371,0-4.668,0-7.119
			C530.616,598.311,532.917,598.311,535.369,598.311z"/>
		<path fill="#71B844" d="M519.675,589.789c2.449,0,4.754,0,7.139,0c0,2.377,0,4.636,0,7.075c-2.456,0-4.741,0-7.139,0
			C519.675,594.463,519.675,592.234,519.675,589.789z"/>
		<path fill="#71B844" d="M389.469,598.304c0,2.422,0,4.648,0,7.053c-2.411,0-4.706,0-7.129,0c0-2.407,0-4.664,0-7.053
			C384.709,598.304,387.011,598.304,389.469,598.304z"/>
		<path fill="#71B844" d="M389.451,588.335c-2.435,0-4.733,0-7.137,0c0-2.425,0-4.659,0-7.028c2.382,0,4.692,0,7.137,0
			C389.451,583.624,389.451,585.851,389.451,588.335z"/>
		<path fill="#71B844" d="M535.291,580.244c-2.451,0-4.593,0-6.937,0c0-2.419,0-4.763,0-7.235c2.274,0,4.542,0,6.937,0
			C535.291,575.386,535.291,577.72,535.291,580.244z"/>
		<path fill="#71B844" d="M566.117,581.289c0,2.51,0,4.814,0,7.199c-2.414,0-4.635,0-7.031,0c0-2.412,0-4.743,0-7.199
			C561.445,581.289,563.744,581.289,566.117,581.289z"/>
		<path fill="#71B844" d="M469.569,580.233c0-2.494,0-4.829,0-7.254c2.429,0,4.658,0,7.03,0c0,2.446,0,4.796,0,7.254
			C474.241,580.233,471.979,580.233,469.569,580.233z"/>
		<path fill="#71B844" d="M502.444,598.285c2.395,0,4.623,0,7.038,0c0,2.411,0,4.717,0,7.139c-2.317,0-4.62,0-7.038,0
			C502.444,602.998,502.444,600.727,502.444,598.285z"/>
		<path fill="#71B844" d="M420.215,596.91c0-2.45,0-4.687,0-7.076c2.409,0,4.7,0,7.093,0c0,2.383,0,4.651,0,7.076
			C424.926,596.91,422.624,596.91,420.215,596.91z"/>
		<path fill="#71B844" d="M307.57,589.77c2.438,0,4.667,0,7.053,0c0,2.385,0,4.687,0,7.143c-2.324,0-4.63,0-7.053,0
			C307.57,594.584,307.57,592.275,307.57,589.77z"/>
		<path fill="#71B844" d="M266.717,598.264c2.374,0,4.603,0,6.997,0c0,2.37,0,4.709,0,7.171c-2.375,0-4.633,0-6.997,0
			C266.717,603.023,266.717,600.75,266.717,598.264z"/>
		<path fill="#71B844" d="M306.123,589.795c0,2.401,0,4.681,0,7.105c-2.317,0-4.579,0-6.995,0c0-2.374,0-4.678,0-7.105
			C301.491,589.795,303.757,589.795,306.123,589.795z"/>
		<path fill="#71B844" d="M380.775,613.913c-2.361,0-4.629,0-7.011,0c0-2.358,0-4.67,0-7.128c2.34,0,4.604,0,7.011,0
			C380.775,609.108,380.775,611.378,380.775,613.913z"/>
		<path fill="#71B844" d="M502.553,588.417c0-2.353,0-4.647,0-7.099c2.189,0,4.452,0,6.887,0c0,2.34,0,4.643,0,7.099
			C507.259,588.417,505.077,588.417,502.553,588.417z"/>
		<path fill="#71B844" d="M306.103,588.473c-2.397,0-4.591,0-6.955,0c0-2.408,0-4.712,0-7.17c2.298,0,4.563,0,6.955,0
			C306.103,583.696,306.103,586.003,306.103,588.473z"/>
		<path fill="#71B844" d="M266.712,606.757c2.423,0,4.647,0,7.04,0c0,2.41,0,4.708,0,7.119c-2.405,0-4.664,0-7.04,0
			C266.712,611.452,266.712,609.185,266.712,606.757z"/>
		<path fill="#71B844" d="M273.728,596.922c-2.442,0-4.697,0-7.059,0c0-2.414,0-4.682,0-7.101c2.368,0,4.659,0,7.059,0
			C273.728,592.206,273.728,594.474,273.728,596.922z"/>
		<path fill="#71B844" d="M258.099,589.784c2.301,0,4.527,0,6.95,0c0,2.32,0,4.626,0,7.093c-2.18,0-4.475,0-6.95,0
			C258.099,594.5,258.099,592.201,258.099,589.784z"/>
		<path fill="#71B844" d="M299.125,598.272c2.385,0,4.611,0,6.97,0c0,2.412,0,4.716,0,7.16c-2.305,0-4.563,0-6.97,0
			C299.125,603.075,299.125,600.769,299.125,598.272z"/>
		<path fill="#71B844" d="M502.612,589.759c2.206,0,4.428,0,6.816,0c0,2.4,0,4.697,0,7.15c-2.177,0-4.352,0-6.816,0
			C502.612,594.594,502.612,592.283,502.612,589.759z"/>
		<path fill="#71B844" d="M502.629,572.963c2.22,0,4.415,0,6.806,0c0,2.397,0,4.734,0,7.228c-2.226,0-4.361,0-6.806,0
			C502.629,577.856,502.629,575.503,502.629,572.963z"/>
		<path fill="#71B844" d="M299.084,613.843c0-2.357,0-4.629,0-7.051c2.349,0,4.604,0,7.003,0c0,2.336,0,4.593,0,7.051
			C303.806,613.843,301.553,613.843,299.084,613.843z"/>
		<path fill="#71B844" d="M444.3,588.33c-2.3,0-4.553,0-6.955,0c0-2.313,0-4.578,0-7.005c2.282,0,4.54,0,6.955,0
			C444.3,583.615,444.3,585.872,444.3,588.33z"/>
		<path fill="#71B844" d="M266.729,588.411c0-2.393,0-4.668,0-7.094c2.298,0,4.561,0,6.986,0c0,2.35,0,4.649,0,7.094
			C271.407,588.411,269.182,588.411,266.729,588.411z"/>
		<path fill="#71B844" d="M444.324,580.172c-2.419,0-4.637,0-6.987,0c0-2.437,0-4.703,0-7.133c2.339,0,4.597,0,6.987,0
			C444.324,575.41,444.324,577.72,444.324,580.172z"/>
		<path fill="#71B844" d="M509.491,606.791c0,2.384,0,4.621,0,7.068c-2.261,0-4.429,0-6.884,0c0-2.279,0-4.595,0-7.068
			C504.782,606.791,507.045,606.791,509.491,606.791z"/>
		<path fill="#71B844" d="M444.304,613.846c-2.3,0-4.555,0-6.959,0c0-2.324,0-4.587,0-7.012c2.284,0,4.545,0,6.959,0
			C444.304,609.132,444.304,611.39,444.304,613.846z"/>
		<path fill="#71B844" d="M444.33,598.305c0,2.334,0,4.559,0,7.021c-2.328,0-4.612,0-7.014,0c0-2.36,0-4.624,0-7.021
			C439.686,598.305,441.945,598.305,444.33,598.305z"/>
		<path fill="#71B844" d="M584.907,598.262c2.458,0,4.732,0,7.149,0c0,2.396,0,4.705,0,7.146c-2.407,0-4.714,0-7.149,0
			C584.907,602.998,584.907,600.726,584.907,598.262z"/>
		<path fill="#71B844" d="M584.904,596.913c0-2.423,0-4.696,0-7.107c2.403,0,4.708,0,7.156,0c0,2.371,0,4.677,0,7.107
			C589.654,596.913,587.321,596.913,584.904,596.913z"/>
		<path fill="#71B844" d="M248.023,581.168c0,2.402,0,4.807,0,7.44c-2.635,0-5.038,0-7.441,0c0-2.459,0-4.918,0-7.44
			C243.062,581.168,245.542,581.168,248.023,581.168z"/>
	</g>
	<path fill-rule="evenodd" clip-rule="evenodd" fill="#282828" d="M286.146,797.788c-2.193,0-4.387,0-6.58,0
		C199.313,656.946,119.059,516.102,38.807,375.26c0.344-0.175,0.689-0.351,1.034-0.526c-9.534-16.65-19.066-33.302-28.707-50.139
		c63.555-42.526,125.098-83.711,186.645-124.888c93.792-62.75,187.588-125.493,281.382-188.24c0.732,0,1.462,0,2.193,0
		c2.105,2.744,4.381,5.375,6.289,8.25c70.821,106.767,141.606,213.558,212.405,320.34c45.901,69.232,91.817,138.458,137.727,207.687
		c0,0.365,0,0.731,0,1.098c-84.487,38.07-168.994,76.103-253.46,114.224C484.907,707.931,385.534,752.875,286.146,797.788z"/>
</g>
<g id="Layer_4" display="none">
</g>
<g id="Layer_3" display="none">
	<g display="inline">
		<path fill="#11AAC5" d="M305.732,517.733c-2.535-2.564-5.083-5.121-7.606-7.698c-9.814-10.017-19.618-20.048-29.434-30.063
			c-6.543-6.677-13.103-13.341-19.655-20.01c-2.65-2.697-5.341-5.356-7.916-8.124c-0.685-0.738-1.262-1.757-1.463-2.734
			c-4.064-19.894-8.06-39.8-12.085-59.701c-3.45-17.06-6.924-34.113-10.379-51.171c-2.174-10.73-4.311-21.468-6.501-32.194
			c-1.241-6.081-2.594-12.137-3.827-18.219c-1.069-5.275-2.03-10.574-3.058-15.859c-0.573-2.942-1.183-5.879-1.79-8.884
			c-4.111-0.564-7.46-2.196-9.594-5.647c-1.265-2.046-1.878-4.397-1.675-6.799c0.499-5.894,4.475-9.865,10.512-10.701
			c4.448-0.615,10.019,2.791,11.563,7.21c1.654,4.739,1.268,10.619-6.037,14.859c0.079,0.802,0.096,1.732,0.271,2.631
			c0.753,3.875,1.533,7.745,2.342,11.608c1.051,5.02,2.17,10.027,3.206,15.052c1.575,7.639,3.103,15.288,4.655,22.931
			c1.375,6.785,2.756,13.566,4.134,20.35c3.586,17.639,7.178,35.275,10.755,52.917c4.009,19.787,7.989,39.581,12.043,59.358
			c0.21,1.021,0.842,2.082,1.569,2.849c4.764,5.021,9.582,9.99,14.429,14.932c11.768,11.99,23.562,23.959,35.344,35.938
			c3.279,3.332,6.553,6.669,9.837,9.995c0.62,0.628,1.283,1.216,2.008,1.897c29.503-5.953,58.997-11.905,88.595-17.878
			c1.34-3.445,2.632-6.806,3.95-10.153c3.014-7.651,6.05-15.291,9.058-22.943c2.747-6.996,5.45-14.007,8.205-21
			c3.489-8.856,7.003-17.707,10.532-26.546c0.716-1.791,1.038-3.505,0.628-5.497c-4.639-22.547-9.197-45.11-13.76-67.673
			c-4.72-23.328-9.42-46.66-14.134-69.988c-2.967-14.684-5.943-29.366-8.924-44.048c-0.138-0.683-0.348-1.351-0.504-1.946
			c-7.084-1.886-10.978-5.537-11.33-10.518c-0.374-5.281,2.375-9.878,7.066-11.813c5.514-2.276,9.46-0.836,15.185,5.757
			c1.741-0.351,3.694-0.741,5.646-1.14c10.207-2.085,20.411-4.184,30.62-6.257c11.835-2.403,23.68-4.752,35.505-7.209
			c2.013-0.417,3.773-0.234,5.66,0.578c9.62,4.128,19.283,8.149,28.93,12.215c10.407,4.388,20.816,8.782,31.221,13.182
			c1.907,0.805,3.795,1.655,6.154,2.691c5.205,25.059,10.238,50.448,15.432,76.005c-16.353,16.842-32.689,33.672-49.374,50.857
			c22.049,9.305,43.735,18.455,65.419,27.605c5.126,25.405,10.216,50.633,15.33,75.959c-2.542,2.644-5.072,5.296-7.62,7.929
			c-6.836,7.056-13.665,14.119-20.519,21.156c-6.688,6.86-13.407,13.689-20.11,20.535c-0.66,0.676-1.418,1.289-1.937,2.065
			c-1.447,2.173-3.618,2.748-6.01,3.227c-21.367,4.258-42.716,8.591-64.07,12.903c-2.594,0.521-5.189,1.047-7.906,1.595
			c-0.042,4.392-1.404,8.009-4.847,10.559c-1.879,1.392-3.974,2.203-6.398,2.289c-5.661,0.201-10.215-3.938-11.552-8.755
			c-1.357-4.887,1.03-10.071,5.734-12.789c4.961-2.865,9.749-1.644,15.61,4.161c1.69-0.342,3.576-0.724,5.463-1.102
			c6.186-1.236,12.381-2.445,18.56-3.719c7.642-1.576,15.266-3.23,22.906-4.804c8.406-1.733,16.813-3.467,25.244-5.07
			c1.922-0.365,3.361-1.218,4.672-2.578c9.896-10.271,19.811-20.521,29.732-30.765c5.349-5.521,10.732-11.012,16.092-16.521
			c0.573-0.591,1.1-1.227,1.746-1.954c-0.43-2.128-0.862-4.27-1.292-6.41c-4.211-20.833-8.434-41.667-12.611-62.508
			c-0.271-1.359-0.865-2.142-2.177-2.689c-8.896-3.72-17.751-7.541-26.634-11.29c-11.933-5.039-23.874-10.056-35.829-15.033
			c-0.769-0.319-1.757-0.452-2.564-0.292c-7.988,1.584-15.957,3.267-23.942,4.883c-8.204,1.662-16.425,3.255-24.629,4.928
			c-5.545,1.131-11.068,2.371-16.609,3.521c-4.681,0.973-9.375,1.886-14.063,2.83c-0.394,0.08-0.779,0.202-1.374,0.359
			c0.102,0.854,0.141,1.661,0.298,2.444c2.491,12.364,4.973,24.729,7.521,37.081c0.364,1.762,0.22,3.327-0.462,4.994
			c-3.02,7.388-5.971,14.804-8.896,22.23c-4.481,11.392-8.915,22.8-13.382,34.196c-3.584,9.145-7.181,18.28-10.775,27.421
			c-0.13,0.327-0.292,0.643-0.507,1.114C368.283,505.109,337.144,511.393,305.732,517.733z M424.364,364.562
			c2.406-0.485,4.363-0.876,6.318-1.273c14.492-2.956,28.982-5.922,43.477-8.866c5.734-1.166,11.484-2.259,17.216-3.436
			c3.817-0.785,7.584-1.885,11.431-2.416c2.272-0.313,3.952-1.088,5.513-2.723c7.144-7.492,14.361-14.917,21.579-22.337
			c8.211-8.438,16.434-16.861,24.694-25.249c1.097-1.115,1.313-2.251,0.99-3.697c-0.952-4.255-1.871-8.519-2.745-12.792
			c-1.463-7.179-2.872-14.369-4.324-21.55c-2.206-10.901-4.444-21.794-6.62-32.7c-0.258-1.294-0.826-2.124-2.052-2.625
			c-4.979-2.043-9.943-4.125-14.909-6.203c-7.473-3.128-14.948-6.252-22.409-9.402c-8.229-3.474-16.434-7.012-24.691-10.417
			c-1.072-0.442-2.457-0.546-3.603-0.321c-10.278,2.006-20.535,4.126-30.8,6.203c-12.473,2.522-24.945,5.036-37.419,7.554
			c-1.08,0.218-2.161,0.437-3.215,0.649c-0.589,4.789-2.636,8.334-6.905,10.493C405.366,270.417,414.82,317.269,424.364,364.562z"/>
		<path fill="#11AAC5" d="M381.379,265.104c-3.14-0.651-5.884-1.779-7.515-4.656c-0.965-1.704-1.385-3.496-1.127-5.456
			c0.54-4.124,3.491-7.127,7.639-7.726c3.85-0.554,7.644,1.561,9.253,5.155c1.882,4.211,0.599,7.852-4.297,11.754
			c0.174,1.129,0.316,2.405,0.57,3.658c7.464,36.841,14.938,73.679,22.41,110.517c2.081,10.268,4.129,20.542,6.248,30.802
			c0.328,1.576,0.181,2.935-0.43,4.45c-3.091,7.676-6.031,15.413-9.061,23.112c-3.072,7.813-6.197,15.605-9.285,23.412
			c-2.09,5.28-4.146,10.575-6.234,15.855c-0.865,2.189-1.771,4.362-2.669,6.564c-25.393,5.124-50.686,10.229-76.083,15.353
			c-2.153-2.169-4.321-4.339-6.471-6.527c-7.25-7.389-14.507-14.77-21.734-22.181c-3.594-3.684-7.099-7.454-10.697-11.136
			c-4.506-4.609-9.087-9.147-13.577-13.774c-0.615-0.634-1.117-1.553-1.293-2.416c-4.654-22.859-9.244-45.732-13.881-68.597
			c-1.539-7.595-3.199-15.165-4.764-22.756c-0.931-4.516-1.758-9.052-2.676-13.568c-1.567-7.698-3.187-15.384-4.751-23.081
			c-1.082-5.32-2.104-10.656-3.168-15.98c-0.113-0.564-0.333-1.108-0.471-1.556c-6.105-2.682-8.324-5.587-7.827-10.112
			c0.41-3.726,3.262-6.615,6.988-7.581c3.409-0.883,7.901,0.631,9.718,4.729c2.493,5.625,0.201,9.691-4.865,12.385
			c0.905,4.485,1.77,8.768,2.634,13.05c3.228,16.012,6.441,32.026,9.684,48.034c2.34,11.547,4.735,23.086,7.076,34.633
			c3.271,16.132,6.504,32.27,9.799,48.397c0.179,0.879,0.591,1.844,1.199,2.48c5.517,5.764,11.081,11.482,16.669,17.173
			c7.214,7.35,14.47,14.652,21.691,21.99c3.694,3.755,7.362,7.533,11.012,11.329c0.765,0.797,1.604,0.86,2.593,0.66
			c9.689-1.97,19.379-3.93,29.071-5.88c12.128-2.439,24.261-4.865,36.392-7.296c1.616-0.326,3.233-0.653,4.919-0.994
			c0.904-2.24,1.753-4.312,2.576-6.391c4.088-10.351,8.173-20.699,12.248-31.054c3.897-9.903,7.802-19.806,11.633-29.735
			c0.317-0.817,0.299-1.872,0.123-2.755c-2.564-12.892-5.186-25.772-7.787-38.656c-4.83-23.909-9.646-47.821-14.489-71.727
			c-1.586-7.827-3.256-15.637-4.86-23.459c-0.606-2.955-1.129-5.927-1.702-8.888C381.721,266.204,381.563,265.759,381.379,265.104z"
			/>
		<path fill="#11AAC5" d="M476.876,503.529c-3.129,6.296-6.389,8.407-11.286,7.264c-3.618-0.846-6.456-3.767-6.722-8.355
			c-0.217-3.724,2.448-7.426,6.158-8.659c4.244-1.41,7.934,0.36,11.373,5.626c0.718-0.042,1.595,0.005,2.429-0.158
			c3.131-0.614,6.245-1.315,9.373-1.946c4.099-0.829,8.214-1.589,12.308-2.439c5.252-1.093,10.483-2.28,15.741-3.357
			c4.607-0.947,9.247-1.744,13.846-2.729c0.914-0.195,1.874-0.78,2.539-1.458c7.66-7.819,15.261-15.699,22.894-23.548
			c4.946-5.089,9.924-10.153,14.877-15.235c0.491-0.503,0.912-1.077,1.449-1.717c-3.892-19.288-7.786-38.593-11.724-58.1
			c-1.458-0.643-2.953-1.321-4.463-1.963c-11.377-4.832-22.75-9.67-34.139-14.477c-4.575-1.932-9.152-3.867-13.795-5.63
			c-1.066-0.406-2.447-0.333-3.609-0.105c-8.829,1.72-17.639,3.533-26.458,5.317c-6.788,1.373-13.578,2.741-20.362,4.13
			c-0.787,0.16-1.552,0.442-2.273,0.651c0.168,6.922-3.614,9.712-7.097,10.436c-4.188,0.873-7.966-1.14-9.871-5.141
			c-1.687-3.537-0.655-7.829,2.5-10.394c3.596-2.925,7.503-2.58,12.81,1.327c2.287-0.462,4.831-0.972,7.372-1.488
			c14.558-2.956,29.119-5.913,43.677-8.874c1.46-0.298,2.826-0.435,4.313,0.209c8.577,3.709,17.197,7.315,25.801,10.962
			c9.367,3.967,18.732,7.938,28.093,11.913c0.27,0.113,0.517,0.279,0.876,0.476c4.155,20.6,8.321,41.242,12.517,62.031
			c-1.409,1.491-2.802,3.012-4.243,4.482c-3.316,3.379-6.685,6.705-9.979,10.105c-4.362,4.495-8.649,9.07-13.016,13.563
			c-3.545,3.646-7.167,7.216-10.742,10.831c-0.453,0.46-0.885,0.963-1.24,1.501c-2.168,3.264-5.586,4.058-9.101,4.721
			c-4.061,0.768-8.108,1.585-12.157,2.4c-7.521,1.518-15.041,3.054-22.562,4.577C487.599,501.369,482.213,502.453,476.876,503.529z"
			/>
		<path fill="#11AAC5" d="M249.333,318.098c-4.655-1.973-6.381-4.067-6.059-7.215c0.286-2.768,2.397-5.173,5.051-5.749
			c2.487-0.54,5.475,0.736,6.759,2.887c1.817,3.044,1.248,5.249-2.606,9.539c0.37,1.839,0.779,3.859,1.187,5.879
			c4.943,24.49,9.884,48.982,14.831,73.473c2.404,11.896,4.791,23.799,7.285,35.677c0.261,1.246,0.978,2.564,1.863,3.483
			c6.566,6.823,13.23,13.555,19.86,20.314c5.791,5.906,11.574,11.817,17.366,17.721c0.618,0.628,1.266,1.229,1.962,1.905
			c18.943-3.823,37.845-7.638,56.938-11.491c0.832-2.057,1.709-4.175,2.546-6.308c5.081-12.946,10.146-25.896,15.228-38.84
			c1.015-2.58,2.114-5.125,3.102-7.714c0.241-0.634,0.393-1.416,0.26-2.063c-3.511-17.334-7.088-34.657-10.61-51.99
			c-4.221-20.77-8.4-41.547-12.604-62.32c-0.104-0.513-0.272-1.015-0.438-1.622c-2.839-0.572-5.176-1.838-6.12-4.761
			c-0.579-1.797-0.117-3.555,0.672-5.156c1.45-2.941,6.179-3.957,9.046-1.983c1.993,1.372,2.995,3.334,2.863,5.759
			c-0.132,2.432-1.713,4.064-3.434,5.47c0.673,3.334,1.333,6.508,1.951,9.688c0.729,3.765,1.383,7.545,2.146,11.304
			c0.646,3.185,1.45,6.337,2.09,9.522c0.79,3.938,1.421,7.907,2.228,11.842c1.221,5.964,2.579,11.901,3.796,17.868
			c2.556,12.519,5.051,25.05,7.586,37.575c1.223,6.033,2.457,12.065,3.732,18.087c0.295,1.391,0.126,2.601-0.421,3.939
			c-2.81,6.906-5.478,13.869-8.226,20.799c-3.159,7.972-6.356,15.927-9.518,23.896c-0.849,2.142-1.611,4.313-2.448,6.462
			c-0.385,0.985-0.851,1.94-1.317,2.994c-20.037,4.043-40.035,8.079-60.177,12.143c-1.73-1.819-3.451-3.673-5.221-5.479
			c-5.051-5.153-10.121-10.291-15.185-15.433c-5.607-5.689-11.216-11.381-16.828-17.068c-1.246-1.264-2.605-2.436-3.715-3.809
			c-0.709-0.878-1.285-2-1.526-3.102c-1.169-5.318-2.206-10.661-3.286-15.996c-2.004-9.913-3.985-19.829-6.014-29.736
			c-1.705-8.324-3.487-16.631-5.19-24.955c-1.17-5.72-2.242-11.461-3.402-17.181c-1.009-4.974-2.085-9.933-3.125-14.9
			c-0.845-4.045-1.676-8.093-2.521-12.138C249.605,318.915,249.459,318.527,249.333,318.098z"/>
		<path fill="#11AAC5" d="M560.744,444.225c-3.424,3.513-6.858,7.018-10.27,10.548c-4.975,5.142-9.924,10.313-14.905,15.45
			c-2.183,2.248-4.392,4.476-6.654,6.643c-0.517,0.495-1.273,0.869-1.979,1.016c-8.633,1.786-17.282,3.519-25.926,5.266
			c-4.581,0.926-9.163,1.851-13.739,2.787c-0.517,0.104-1.013,0.295-1.438,0.421c-2.371,4.684-4.56,6.35-7.556,5.826
			c-2.793-0.485-5.313-2.977-5.572-5.506c-0.298-2.897,1.251-5.603,3.872-6.779c2.968-1.327,5.615-0.314,8.858,3.563
			c0.748-0.151,1.653-0.335,2.562-0.517c12.536-2.525,25.083-4.98,37.579-7.669c1.497-0.322,2.877-1.766,4.04-2.953
			c6.009-6.119,11.921-12.333,17.883-18.498c3.366-3.479,6.765-6.926,10.2-10.438c-2.986-14.784-5.955-29.505-8.964-44.411
			c-2.76-1.183-5.568-2.405-8.391-3.592c-10.137-4.271-20.311-8.452-30.391-12.854c-2.337-1.021-4.402-0.419-6.558,0.011
			c-11.895,2.385-23.781,4.831-35.67,7.261c-0.624,0.128-1.239,0.305-1.555,0.385c-0.507,1.896-0.728,3.608-1.413,5.107
			c-1.197,2.62-4.363,3.761-7.438,2.955c-2.378-0.623-4.44-3.567-4.39-6.272c0.052-2.825,2.188-5.393,4.942-5.957
			c1.746-0.356,3.343-0.159,4.951,0.755c0.84,0.478,2.056,0.708,2.997,0.523c6.553-1.281,13.074-2.724,19.615-4.067
			c7.521-1.548,15.058-3.047,22.579-4.564c14.49,6.129,28.907,12.228,43.182,18.264
			C554.423,412.901,557.573,428.503,560.744,444.225z"/>
		<path fill="#11AAC5" d="M541.628,291.779c-0.717-3.551-1.445-7.137-2.164-10.723c-1.092-5.442-2.164-10.889-3.271-16.327
			c-0.849-4.16-1.755-8.307-2.606-12.466c-1.09-5.313-2.197-10.624-3.197-15.956c-0.328-1.738-1.104-2.761-2.798-3.467
			c-14.357-5.989-28.678-12.073-43.013-18.124c-1.741-0.735-3.555-1.332-5.227-2.198c-2.19-1.133-4.335-1.108-6.691-0.599
			c-7.46,1.613-14.958,3.046-22.435,4.584c-7.574,1.559-15.139,3.161-22.707,4.744c-1.201,0.25-2.405,0.485-3.744,0.755
			c-0.01,0.958,0.004,1.887-0.04,2.814c-0.193,4.156-3.025,7.539-7.078,8.483c-3.516,0.819-7.832-1.328-9.665-4.806
			c-1.723-3.266-0.889-7.825,1.911-10.447c2.749-2.578,7.322-3.26,10.344-1.172c1.833,1.266,3.387,1.379,5.539,0.911
			c10.405-2.266,20.869-4.261,31.31-6.37c6.265-1.265,12.531-2.53,18.781-3.872c1.295-0.278,2.392-0.107,3.584,0.399
			c7.889,3.364,15.808,6.661,23.706,9.997c9.701,4.096,19.355,8.296,29.112,12.256c2.463,1.001,2.394,2.995,2.8,4.858
			c1.021,4.671,1.92,9.37,2.861,14.058c2.521,12.588,5.038,25.178,7.559,37.767c0.405,2.025,0.816,4.05,1.262,6.258
			c-1.396,1.47-2.841,3.021-4.317,4.542c-4.698,4.836-9.413,9.656-14.112,14.49c-7.798,8.021-15.573,16.061-23.406,24.046
			c-0.654,0.667-1.613,1.235-2.519,1.422c-14.725,3.033-29.466,5.995-44.203,8.976c-2.66,0.536-5.32,1.073-7.806,1.574
			c-2.737,6.101-6.429,8.532-11.041,7.47c-3.985-0.92-6.835-4.486-6.889-8.622c-0.053-4.116,2.705-7.715,6.59-8.601
			c4.71-1.072,8.385,0.843,10.678,5.72c0.54-0.029,1.179,0.012,1.782-0.109c12.363-2.485,24.72-4.988,37.081-7.488
			c3.771-0.763,7.563-1.444,11.302-2.339c1.193-0.286,2.479-0.92,3.332-1.78c6.045-6.088,11.996-12.271,17.967-18.434
			c6.923-7.139,13.835-14.286,20.748-21.431C541.11,292.401,541.255,292.214,541.628,291.779z"/>
		<path fill="#11AAC5" d="M458.078,326.958c3.198-0.645,6.442-1.296,9.684-1.954c9.341-1.896,18.685-3.769,28.011-5.723
			c0.919-0.194,1.907-0.717,2.565-1.383c5.438-5.518,10.801-11.113,16.202-16.671c4.204-4.325,8.43-8.628,12.639-12.948
			c0.287-0.292,0.521-0.635,0.841-1.032c-2.967-14.705-5.939-29.43-8.934-44.271c-2.321-1.019-4.629-2.065-6.964-3.049
			c-10.842-4.563-21.689-9.124-32.553-13.638c-0.772-0.321-1.752-0.499-2.557-0.341c-12.196,2.405-24.38,4.874-36.567,7.336
			c-0.516,0.104-1.017,0.287-1.477,0.419c-1.937,5.331-3.763,7.115-7.069,6.955c-2.79-0.135-5.17-2.017-5.863-4.635
			c-0.724-2.734,0.306-5.646,2.48-7.018c2.98-1.881,5.452-1.421,9.463,1.923c2.393-0.483,4.988-1.007,7.584-1.53
			c10.556-2.126,21.109-4.265,31.674-6.354c0.703-0.14,1.556-0.101,2.209,0.169c6.499,2.7,12.966,5.484,19.456,8.208
			c6.921,2.907,13.86,5.774,20.791,8.664c0.593,0.248,1.173,0.53,1.812,0.819c3.18,15.766,6.353,31.48,9.554,47.339
			c-2.441,2.524-4.898,5.073-7.367,7.618c-4.115,4.247-8.236,8.493-12.355,12.736c-3.872,3.989-7.706,8.018-11.658,11.928
			c-0.737,0.73-1.903,1.207-2.95,1.422c-10.492,2.166-21.002,4.253-31.506,6.364c-2.249,0.453-4.497,0.907-6.746,1.36
			c-1.067,4.02-3.31,6.468-7.465,6.143c-2.775-0.216-5.184-2.845-5.519-5.508c-0.325-2.6,1.186-5.456,3.438-6.494
			C452.19,322.31,454.43,323.034,458.078,326.958z"/>
	</g>
</g>
</svg>
